<svg xmlns:mydata="http://www.w3.org/2000/svg" mydata:contrastcolor="ffffff" mydata:template="SingleColorHex1" mydata:presentation="2.5" mydata:layouttype="undefined" mydata:specialfontid="undefined" mydata:id1="946" mydata:id2="726" mydata:companyname="MyStyle" mydata:companytagline="" version="1.1" xmlns="http://www.w3.org/2000/svg" xmlns:xlink="http://www.w3.org/1999/xlink" viewBox="0 0 550 470"><g fill="#101820" fill-rule="none" stroke="none" stroke-width="1" stroke-linecap="butt" stroke-linejoin="miter" stroke-miterlimit="10" stroke-dasharray="" stroke-dashoffset="0" font-family="none" font-weight="none" font-size="none" text-anchor="none" style="mix-blend-mode: normal"><g data-paper-data="{&quot;isGlobalGroup&quot;:true,&quot;bounds&quot;:{&quot;x&quot;:156.48286410754153,&quot;y&quot;:115.00000000000003,&quot;width&quot;:237.0342717849169,&quot;height&quot;:239.99999999999997}}"><g data-paper-data="{&quot;isPrimaryText&quot;:true}" fill-rule="nonzero"><path d="M202.9359,290.59853c-3.27738,0 -6.7477,1.51769 -9.69993,4.08405c-2.09483,1.82123 -5.33396,1.60668 -7.06538,-0.56217c-1.81291,-2.27113 -4.50484,-3.52188 -8.24793,-3.52188c-3.21585,0 -6.63627,1.60834 -9.5519,4.31357c-1.58838,1.47445 -4.17303,0.32849 -4.17303,-1.8387v-1.66322h-2.72519c-2.75596,0 -4.98967,2.23371 -4.98967,4.98967v35.6163h7.71487v-30.31394c0,-0.84991 0.30354,-1.68734 0.90646,-2.2861c1.94181,-1.92768 5.63667,-3.13268 9.73236,-3.13268c4.79175,0 6.65955,3.8986 6.65955,9.74566v25.98789h7.71487v-25.98872l-0.00333,-4.57553c-0.00083,-1.10771 0.5497,-2.13724 1.46281,-2.76345c2.16219,-1.4836 5.50278,-2.40585 9.17934,-2.40585c4.79175,0 6.65955,3.8986 6.65955,9.74566v25.98789h7.71487v-25.98872c0,-9.25751 -3.16678,-15.42974 -11.28831,-15.42974z" data-paper-data="{&quot;glyphName&quot;:&quot;m&quot;,&quot;glyphIndex&quot;:0,&quot;firstGlyphOfWord&quot;:true,&quot;word&quot;:1}"></path><path d="M247.45048,291.40986l-7.33963,19.80909c-1.18976,3.62238 -6.22037,3.86608 -7.75653,0.37686l-8.88015,-20.18595h-2.07839c-3.00183,0 -5.01407,3.0819 -3.8069,5.83045l11.84977,26.98075c2.15759,4.91137 2.30642,10.47288 0.40906,15.49043c-0.85207,2.2542 -1.69892,4.51101 -2.55621,6.76085c-0.73109,1.86776 -1.86776,3.16719 -2.1924,3.16719c-2.30555,0 -2.31251,-4.19246 -6.12811,-1.75636c-1.02266,0.65276 -1.66932,1.76506 -1.66845,2.97833c0.00087,2.5153 1.62581,4.1385 4.14111,4.1385c2.19327,0 6.01061,-3.00444 7.71475,-7.55287l5.60329,-14.61747l15.43125,-41.41893h-2.74246z" data-paper-data="{&quot;glyphName&quot;:&quot;y&quot;,&quot;glyphIndex&quot;:1,&quot;word&quot;:1}"></path><path d="M266.50284,309.11503c-6.33439,-1.70564 -8.75189,-5.6849 -8.75189,-10.31449c0,-4.54809 1.92934,-6.72109 6.0716,-6.72109c0.95552,0 1.91021,0.15135 2.83829,0.43577c3.625,1.11103 6.5057,4.70942 8.53151,7.7473c0.16216,0.24366 0.24366,0.48733 0.40583,0.73099h0.32516v-6.11984c0,-0.73348 -0.43743,-1.39628 -1.11187,-1.68485l-1.50106,-0.64284c-2.99879,-1.28235 -6.22545,-1.94514 -9.48787,-1.94764c-7.06538,0 -11.77563,4.22293 -11.77563,10.55732c0,6.09073 3.8986,11.12614 11.3698,13.15611c6.09073,1.62414 7.59512,5.11608 7.59512,9.09618c0,5.27908 -1.42289,7.9394 -6.05164,7.9394c-5.62835,0 -9.32321,-5.5585 -12.10079,-9.72571c-0.16216,-0.24366 -0.24366,-0.48733 -0.40583,-0.73099h-0.32516v6.50404c0,0.80999 0.50063,1.51936 1.24492,1.83703c1.32975,0.56799 2.56137,1.36135 3.88114,1.98506c2.61792,1.23661 4.95974,1.61167 7.70572,1.61167c7.79637,0 12.99394,-4.54809 12.99394,-11.3698c-0.00083,-5.6034 -3.8986,-10.31366 -11.4513,-12.34362z" data-paper-data="{&quot;glyphName&quot;:&quot;s&quot;,&quot;glyphIndex&quot;:2,&quot;word&quot;:1}"></path><path d="M307.22924,323.40397c-0.48816,-0.08815 -0.97465,0.18129 -1.14929,0.64533c-1.16842,3.11855 -3.50441,5.1244 -7.1028,5.1244c-3.8171,0 -6.41589,-2.51729 -6.41589,-9.09618l0.1946,-19.6668c0.02661,-2.736 2.25284,-4.94061 4.98967,-4.94061h7.40385v-4.06076h-12.34445v-9.744h-0.83494c-1.21831,0 -2.21708,0.96467 -2.27363,2.18215c-0.27277,5.79468 -1.86946,7.83711 -7.43046,8.23878c-1.37632,0.09979 -2.45492,1.21998 -2.45492,2.60045v0.78504h5.27908v22.82028c0,10.47665 4.62876,14.53658 11.53197,14.53658c4.97554,0 9.3731,-3.31897 11.22261,-8.32444c0.17796,-0.4815 -0.1106,-1.00958 -0.61539,-1.10022z" data-paper-data="{&quot;glyphName&quot;:&quot;t&quot;,&quot;glyphIndex&quot;:3,&quot;word&quot;:1}"></path><path d="M338.74984,291.40986l-7.33963,19.80909c-1.18976,3.62238 -6.22037,3.86608 -7.75653,0.37686l-8.88015,-20.18595h-2.07839c-3.00183,0 -5.01407,3.0819 -3.8069,5.83045l11.84977,26.98075c2.15759,4.91137 2.30642,10.47288 0.40906,15.49043c-0.85207,2.2542 -1.69892,4.51101 -2.55621,6.76085c-0.73109,1.86776 -1.86776,3.16719 -2.1924,3.16719c-2.30555,0 -2.31251,-4.19246 -6.12811,-1.75636c-1.02266,0.65276 -1.66932,1.76506 -1.66845,2.97833c0.00087,2.5153 1.62581,4.1385 4.14111,4.1385c2.19327,0 6.01061,-3.00444 7.71475,-7.55287l5.60329,-14.61747l15.43125,-41.41893h-2.74246z" data-paper-data="{&quot;glyphName&quot;:&quot;y&quot;,&quot;glyphIndex&quot;:4,&quot;word&quot;:1}"></path><path d="M349.46741,271.1072c-2.75513,0 -4.98967,2.23371 -4.98967,4.98967v55.91928h7.71487v-60.90896z" data-paper-data="{&quot;glyphName&quot;:&quot;l&quot;,&quot;glyphIndex&quot;:5,&quot;word&quot;:1}"></path><path d="M392.04214,321.05255c-0.44076,0 -0.82745,0.2736 -0.99627,0.68026c-2.31105,5.55101 -7.13939,9.22757 -14.55571,9.22757c-6.90321,0 -11.53197,-7.65499 -11.53197,-16.63225v-0.06487c0.00333,-5.44623 4.41836,-9.8596 9.86459,-9.8596h15.04387c2.66116,0 4.43083,-2.76844 3.30649,-5.18011c-2.84994,-6.11402 -8.42507,-8.62548 -15.46467,-8.62548c-12.50662,0 -20.87181,6.33439 -20.87181,22.73961c0,11.69413 7.6342,19.49133 19.00401,19.49133c7.45291,0 14.03346,-4.21628 16.92248,-10.65379c0.23452,-0.52558 -0.14553,-1.12268 -0.72101,-1.12268zM377.62614,290.92324c1.2258,0 2.39089,0.4025 3.46284,1.28734c4.77262,3.94018 1.72975,11.76399 -4.45911,11.80058l-11.28664,0.0657c1.31478,-9.39057 5.88615,-13.15361 12.28291,-13.15361zM376.42362,336.04902h-0.83161c0,3.43955 -2.79754,6.23709 -6.23709,6.23709v0.83161c3.43955,0 6.23709,2.79754 6.23709,6.23709h0.83161c0,-3.43955 2.79754,-6.23709 6.23709,-6.23709v-0.83161c-3.43955,0 -6.23709,-2.79754 -6.23709,-6.23709z" data-paper-data="{&quot;glyphName&quot;:&quot;&quot;,&quot;glyphIndex&quot;:6,&quot;lastGlyphOfWord&quot;:true,&quot;word&quot;:1}"></path></g><g data-paper-data="{&quot;fillRule&quot;:&quot;evenodd&quot;,&quot;fillRuleOriginal&quot;:&quot;evenodd&quot;,&quot;isIcon&quot;:true,&quot;iconStyle&quot;:&quot;standalone&quot;,&quot;selectedEffects&quot;:{&quot;container&quot;:&quot;&quot;,&quot;transformation&quot;:&quot;&quot;,&quot;pattern&quot;:&quot;&quot;},&quot;bounds&quot;:{&quot;x&quot;:212.66988865868532,&quot;y&quot;:115.00000000000003,&quot;width&quot;:124.66022268262938,&quot;height&quot;:124.80284737661137},&quot;iconType&quot;:&quot;icon&quot;,&quot;isDetailed&quot;:false,&quot;source&quot;:&quot;noun&quot;,&quot;rawIconId&quot;:&quot;88218&quot;,&quot;suitableAsStandaloneIcon&quot;:true}" fill-rule="evenodd"><path d="M219.51622,169.48536c0,-0.14263 0.14263,-0.14263 0.14263,-0.28526c0.57053,-0.71316 1.28368,-1.42632 1.85421,-1.99685l0.57053,-0.57053c0.42789,-0.42789 0.85579,-0.85579 1.42632,-1.28368c0.28526,-0.28526 0.57053,-0.42789 0.85579,-0.71316c0.42789,-0.42789 0.85579,-0.71316 1.28368,-1.14105c0.28526,-0.28526 0.57053,-0.42789 0.85579,-0.71316c0.42789,-0.28526 0.85579,-0.71316 1.28368,-0.99842c0.28526,-0.28526 0.57053,-0.42789 0.99842,-0.57053c0.42789,-0.28526 0.99842,-0.57053 1.42632,-0.85579c0.28526,-0.14263 0.57053,-0.42789 0.99842,-0.57053c0.57053,-0.28526 0.99842,-0.57053 1.56895,-0.85579l0.85579,-0.42789c0.71316,-0.28526 1.28368,-0.57053 1.99685,-0.85579c0.14263,-0.14263 0.28526,-0.14263 0.57053,-0.28526c0.85579,-0.28526 1.71158,-0.71316 2.56738,-0.99842c0.28526,-0.14263 0.57053,-0.14263 0.71316,-0.28526c0.57053,-0.14263 1.28368,-0.42789 1.85421,-0.57053c0.28526,-0.14263 0.71316,-0.14263 0.99842,-0.28526l1.71158,-0.42789c0.42789,-0.14263 0.71316,-0.14263 1.14105,-0.28526c0.57053,-0.14263 1.14105,-0.14263 1.71158,-0.28526c0.42789,0 0.71316,-0.14263 1.14105,-0.14263c0.57053,0 1.14105,-0.14263 1.71158,-0.14263c0.42789,0 0.71316,0 1.14105,-0.14263h0.42789v-0.42789c0,-0.42789 0,-0.71316 0.14263,-1.14105c0,-0.57053 0.14263,-1.14105 0.14263,-1.71158c0,-0.42789 0.14263,-0.71316 0.14263,-1.14105c0.14263,-0.57053 0.14263,-1.14105 0.28526,-1.71158c0,-0.42789 0.14263,-0.71316 0.14263,-1.14105l0.42789,-1.71158c0.14263,-0.28526 0.14263,-0.71316 0.28526,-0.99842c0.14263,-0.71316 0.42789,-1.28368 0.57053,-1.99685c0.14263,-0.28526 0.14263,-0.42789 0.28526,-0.71316c0.28526,-0.85579 0.57053,-1.71158 0.99842,-2.56738c0,-0.14263 0.14263,-0.28526 0.14263,-0.42789c0.28526,-0.71316 0.57053,-1.42632 0.99842,-2.13948l0.42789,-0.85579c0.28526,-0.57053 0.57053,-1.14105 0.85579,-1.56895c0.14263,-0.28526 0.42789,-0.57053 0.57053,-0.85579c0.28526,-0.42789 0.57053,-0.99842 0.85579,-1.42632c0.14263,-0.28526 0.42789,-0.57053 0.57053,-0.85579c0.28526,-0.42789 0.71316,-0.85579 0.99842,-1.42632c0.28526,-0.28526 0.42789,-0.57053 0.71316,-0.85579c0.28526,-0.42789 0.71316,-0.85579 1.14105,-1.28368c0.28526,-0.28526 0.42789,-0.57053 0.71316,-0.85579c0.42789,-0.42789 0.85579,-0.99842 1.28368,-1.42632l0.57053,-0.57053c0.71316,-0.71316 1.28368,-1.28368 1.99685,-1.85421l0.28526,-0.28526c0.57053,-0.57053 1.28368,-0.99842 1.85421,-1.56895c0.28526,-0.14263 0.57053,-0.42789 0.85579,-0.57053c0.42789,-0.28526 0.71316,-0.57053 1.14105,-0.85579c-5.42001,-2.56738 -11.26791,-3.85106 -17.25845,-3.85106c-22.53583,0.28526 -40.7927,18.54214 -40.7927,41.07796c0,5.99054 1.28368,11.83844 3.85106,17.25845c0.28526,-0.42789 0.57053,-0.71316 0.85579,-1.14105c0.14263,-0.28526 0.42789,-0.57053 0.57053,-0.71316c0.57053,-0.71316 0.99842,-1.42632 1.56895,-1.99685zM282.98739,122.13159l0.28526,0.28526c0.71316,0.57053 1.42632,1.28368 1.99685,1.85421l0.57053,0.57053c0.42789,0.42789 0.85579,0.85579 1.28368,1.42632c0.28526,0.28526 0.42789,0.57053 0.71316,0.85579c0.42789,0.42789 0.71316,0.85579 1.14105,1.28368c0.28526,0.28526 0.42789,0.57053 0.71316,0.85579c0.28526,0.42789 0.71316,0.85579 0.99842,1.42632c0.14263,0.28526 0.42789,0.57053 0.57053,0.85579c0.28526,0.42789 0.57053,0.99842 0.85579,1.42632c0.14263,0.28526 0.42789,0.57053 0.57053,0.85579c0.28526,0.57053 0.57053,0.99842 0.85579,1.56895l0.42789,0.85579c0.28526,0.71316 0.71316,1.42632 0.99842,2.13948c0,0.14263 0.14263,0.28526 0.14263,0.42789c0.28526,0.85579 0.71316,1.71158 0.99842,2.56738c0.14263,0.28526 0.14263,0.42789 0.28526,0.71316c0.14263,0.71316 0.42789,1.28368 0.57053,1.99685c0.14263,0.28526 0.14263,0.71316 0.28526,0.99842l0.42789,1.71158c0.14263,0.28526 0.14263,0.71316 0.14263,1.14105c0.14263,0.57053 0.14263,1.14105 0.28526,1.71158c0,0.42789 0.14263,0.71316 0.14263,1.14105c0,0.57053 0.14263,1.14105 0.14263,1.71158c0,0.42789 0,0.71316 0.14263,1.14105v0.42789h0.42789c0.42789,0 0.71316,0 1.14105,0.14263c0.57053,0 1.14105,0.14263 1.71158,0.14263c0.42789,0 0.71316,0.14263 1.14105,0.14263c0.57053,0.14263 1.14105,0.14263 1.71158,0.28526c0.42789,0 0.71316,0.14263 1.14105,0.28526l1.71158,0.42789c0.28526,0.14263 0.71316,0.14263 0.99842,0.28526c0.57053,0.14263 1.28368,0.42789 1.85421,0.57053c0.28526,0.14263 0.57053,0.14263 0.71316,0.28526c0.85579,0.28526 1.71158,0.57053 2.56738,0.99842c0.14263,0 0.28526,0.14263 0.57053,0.28526c0.71316,0.28526 1.28368,0.57053 1.99685,0.85579l0.85579,0.42789c0.57053,0.28526 0.99842,0.57053 1.56895,0.85579c0.28526,0.14263 0.57053,0.42789 0.99842,0.57053c0.42789,0.28526 0.99842,0.57053 1.42632,0.85579c0.28526,0.14263 0.57053,0.42789 0.99842,0.57053c0.42789,0.28526 0.85579,0.57053 1.28368,0.99842c0.28526,0.28526 0.57053,0.42789 0.85579,0.71316c0.42789,0.28526 0.85579,0.71316 1.28368,1.14105c0.28526,0.28526 0.57053,0.42789 0.85579,0.71316c0.42789,0.42789 0.99842,0.85579 1.42632,1.28368l0.57053,0.57053c0.71316,0.71316 1.28368,1.28368 1.85421,1.99685c0.14263,0.14263 0.14263,0.14263 0.14263,0.28526c0.57053,0.57053 0.99842,1.28368 1.56895,1.85421c0.14263,0.28526 0.42789,0.57053 0.57053,0.71316c0.28526,0.42789 0.57053,0.71316 0.85579,1.14105c2.56738,-5.42001 3.85106,-11.26791 3.85106,-17.25845c0,-22.53583 -18.25687,-40.7927 -40.7927,-40.7927c-5.84791,-0.14263 -11.69581,1.14105 -17.11582,3.70843c0.42789,0.28526 0.71316,0.57053 1.14105,0.85579c0.28526,0.14263 0.57053,0.42789 0.85579,0.57053c0.57053,0.42789 1.14105,0.99842 1.71158,1.56895zM257.17103,154.08112c0.57053,0 1.14105,0.14263 1.71158,0.14263c0.42789,0 0.71316,0.14263 1.14105,0.14263c0.57053,0.14263 1.14105,0.14263 1.71158,0.28526c0.28526,0 0.71316,0.14263 0.99842,0.14263l1.71158,0.42789c0.28526,0.14263 0.57053,0.14263 0.85579,0.28526c0.85579,0.28526 1.56895,0.42789 2.28211,0.71316c0.14263,0 0.14263,0 0.28526,0.14263c0.85579,0.28526 1.71158,0.57053 2.56738,0.99842c0.28526,0.14263 0.57053,0.28526 0.85579,0.28526l1.71158,0.85579c0.28526,0.14263 0.57053,0.28526 0.99842,0.42789l0.85579,0.42789l0.85579,-0.42789c0.28526,-0.14263 0.57053,-0.28526 0.99842,-0.42789l1.71158,-0.85579c0.28526,-0.14263 0.57053,-0.28526 0.85579,-0.28526c0.85579,-0.28526 1.71158,-0.71316 2.56738,-0.99842c0.14263,0 0.14263,0 0.28526,-0.14263c0.71316,-0.28526 1.56895,-0.42789 2.28211,-0.71316c0.28526,-0.14263 0.57053,-0.14263 0.85579,-0.28526l1.71158,-0.42789c0.28526,-0.14263 0.71316,-0.14263 0.99842,-0.14263c0.57053,-0.14263 1.14105,-0.14263 1.71158,-0.28526c0.42789,0 0.71316,-0.14263 1.14105,-0.14263c0.57053,0 1.14105,-0.14263 1.71158,-0.14263c0.28526,0 0.71316,0 0.99842,-0.14263h0.42789v-0.28526c0,-0.42789 0,-0.71316 -0.14263,-1.14105c0,-0.42789 -0.14263,-0.99842 -0.14263,-1.42632c0,-0.42789 -0.14263,-0.71316 -0.14263,-1.14105c-0.14263,-0.42789 -0.14263,-0.99842 -0.28526,-1.42632c0,-0.42789 -0.14263,-0.71316 -0.28526,-1.14105c-0.14263,-0.42789 -0.14263,-0.99842 -0.28526,-1.42632c-0.14263,-0.42789 -0.14263,-0.71316 -0.28526,-1.14105c-0.14263,-0.42789 -0.28526,-0.85579 -0.42789,-1.42632c-0.14263,-0.28526 -0.28526,-0.71316 -0.42789,-0.99842c-0.14263,-0.42789 -0.28526,-0.85579 -0.57053,-1.42632c-0.14263,-0.28526 -0.28526,-0.71316 -0.42789,-0.99842c-0.14263,-0.42789 -0.42789,-0.85579 -0.57053,-1.28368c-0.14263,-0.28526 -0.28526,-0.71316 -0.42789,-0.99842c-0.28526,-0.42789 -0.42789,-0.85579 -0.71316,-1.42632l-0.42789,-0.85579c-0.28526,-0.42789 -0.57053,-0.99842 -0.85579,-1.42632c-0.14263,-0.28526 -0.28526,-0.42789 -0.42789,-0.71316c-0.42789,-0.71316 -0.99842,-1.42632 -1.42632,-1.99685c-0.57053,-0.71316 -0.99842,-1.28368 -1.56895,-1.99685l-0.57053,-0.57053c-0.42789,-0.42789 -0.71316,-0.85579 -1.14105,-1.28368l-0.71316,-0.71316c-0.42789,-0.42789 -0.71316,-0.71316 -1.14105,-0.99842c-0.28526,-0.28526 -0.57053,-0.42789 -0.85579,-0.71316c-0.42789,-0.28526 -0.71316,-0.71316 -1.14105,-0.99842c-0.28526,-0.28526 -0.57053,-0.42789 -0.85579,-0.71316c-0.42789,-0.28526 -0.85579,-0.57053 -1.14105,-0.85579c-0.28526,-0.28526 -0.57053,-0.42789 -0.99842,-0.57053c-0.28526,-0.14263 -0.42789,-0.28526 -0.71316,-0.42789c-0.28526,0.14263 -0.42789,0.28526 -0.71316,0.42789c-0.28526,0.14263 -0.71316,0.42789 -0.99842,0.57053c-0.42789,0.28526 -0.85579,0.57053 -1.14105,0.85579c-0.28526,0.28526 -0.57053,0.42789 -0.85579,0.71316c-0.42789,0.28526 -0.71316,0.57053 -1.14105,0.99842c-0.28526,0.28526 -0.57053,0.42789 -0.85579,0.71316c-0.42789,0.28526 -0.71316,0.71316 -1.14105,0.99842l-0.71316,0.71316c-0.42789,0.42789 -0.85579,0.85579 -1.14105,1.28368l-0.57053,0.57053c-0.57053,0.71316 -1.14105,1.28368 -1.56895,1.99685c-0.57053,0.71316 -0.99842,1.42632 -1.42632,1.99685c-0.14263,0.28526 -0.28526,0.42789 -0.42789,0.71316c-0.28526,0.42789 -0.57053,0.99842 -0.85579,1.42632l-0.42789,0.85579c-0.28526,0.42789 -0.57053,0.85579 -0.71316,1.42632c-0.14263,0.28526 -0.28526,0.57053 -0.42789,0.99842c-0.14263,0.42789 -0.42789,0.85579 -0.57053,1.28368c-0.14263,0.28526 -0.28526,0.71316 -0.42789,0.99842c-0.14263,0.42789 -0.28526,0.85579 -0.57053,1.42632c-0.14263,0.28526 -0.28526,0.71316 -0.42789,0.99842c-0.14263,0.42789 -0.28526,0.85579 -0.42789,1.42632c-0.14263,0.42789 -0.14263,0.71316 -0.28526,1.14105c-0.14263,0.42789 -0.28526,0.99842 -0.28526,1.42632c-0.14263,0.42789 -0.14263,0.71316 -0.28526,1.14105c-0.02895,0.08686 -0.05206,0.17972 -0.0716,0.276l-0.00157,0.00784c-0.11453,0.4346 -0.2121,0.78861 -0.2121,1.14248c0,0.42789 -0.14263,0.71316 -0.14263,1.14105c0,0.05135 -0.002,0.10483 -0.0057,0.15989c-0.12309,0.37969 -0.1355,0.76065 -0.13678,1.24289l-0.00014,0.02353c0,0.42789 0,0.71316 -0.14263,1.14105v0.28526h0.42789c0.28526,0.14263 0.71316,0.14263 0.99842,0.14263zM279.84949,124.98423c-0.28526,-0.28526 -0.71316,-0.57053 -1.14105,-0.99842c0.42789,0.28526 0.71316,0.57053 1.14105,0.99842zM285.84003,131.40266c-0.42789,-0.71316 -0.99842,-1.42632 -1.56895,-1.99685c0.57053,0.71316 1.14105,1.28368 1.56895,1.99685zM285.98266,131.40266c0.13678,0.17102 0.26544,0.34217 0.38796,0.51119c-0.13635,-0.17957 -0.26786,-0.35101 -0.38796,-0.51119zM286.37061,131.91385c0.34916,0.45984 0.73056,0.97275 1.03836,1.48565c-0.3252,-0.43375 -0.65054,-0.94979 -1.03836,-1.48565zM289.26319,136.39477c0.28526,0.42789 0.57053,0.85579 0.71316,1.42632c-0.28526,-0.42789 -0.42789,-0.85579 -0.71316,-1.42632zM258.88261,140.1032c0.14263,-0.42789 0.42789,-0.85579 0.57053,-1.28368c-0.14263,0.42789 -0.28526,0.85579 -0.57053,1.28368zM290.40424,138.81952c0.14263,0.42789 0.42789,0.85579 0.57053,1.28368c-0.14263,-0.42789 -0.28526,-0.85579 -0.57053,-1.28368zM291.40266,141.10162c0.14263,0.42789 0.28526,0.85579 0.57053,1.42632c-0.14263,-0.42789 -0.28526,-0.85579 -0.57053,-1.42632zM292.40109,143.52637c0.14263,0.42789 0.28526,0.85579 0.42789,1.42632c-0.14263,-0.42789 -0.28526,-0.85579 -0.42789,-1.42632zM256.6005,147.37742c0.14263,-0.42789 0.14263,-0.99842 0.28526,-1.42632c0,0.57053 -0.14263,0.99842 -0.28526,1.42632zM293.11425,146.09374c0.14263,0.42789 0.28526,0.99842 0.28526,1.42632c-0.14263,-0.57053 -0.28526,-0.99842 -0.28526,-1.42632zM293.68478,148.51848c0.14263,0.42789 0.14263,0.99842 0.28526,1.42632c-0.14263,-0.42789 -0.28526,-0.85579 -0.28526,-1.42632zM293.97004,151.08585c0,0.42789 0.14263,0.99842 0.14263,1.42632c0,-0.42789 0,-0.85579 -0.14263,-1.42632zM251.60839,195.44435c-0.08558,0.17116 -0.11981,0.39367 -0.1335,0.48267c-0.00385,0.02496 -0.00599,0.03937 -0.00742,0.03937c-0.00171,-0.00014 -0.00171,-0.02796 -0.00171,-0.09414v0.42789h-0.28526c-0.42789,-0.14263 -0.71316,-0.14263 -1.14105,-0.14263c-0.42789,0 -0.99842,-0.14263 -1.42632,-0.14263c-0.42789,0 -0.71316,-0.14263 -1.14105,-0.14263c-0.42789,-0.14263 -0.99842,-0.14263 -1.42632,-0.28526c-0.42789,-0.14263 -0.71316,-0.14263 -1.14105,-0.28526c-0.42789,0 -0.99842,-0.14263 -1.42632,-0.28526c-0.42789,-0.14263 -0.71316,-0.14263 -1.14105,-0.28526c-0.57053,-0.14263 -0.99842,-0.28526 -1.42632,-0.42789c-0.28526,0 -0.71316,-0.14263 -0.99842,-0.28526c-0.57053,-0.28526 -0.99842,-0.42789 -1.42632,-0.57053c-0.28526,-0.14263 -0.71316,-0.28526 -0.99842,-0.42789c-0.57053,-0.14263 -0.99842,-0.28526 -1.42632,-0.57053c-0.42789,-0.14263 -0.71316,-0.28526 -0.99842,-0.42789c-0.57053,-0.14263 -0.99842,-0.42789 -1.42632,-0.71316l-0.85579,-0.42789c-0.42789,-0.28526 -0.99842,-0.57053 -1.42632,-0.85579c-0.28526,-0.14263 -0.42789,-0.28526 -0.71316,-0.42789c-1.28368,-0.99842 -2.71001,-1.99685 -3.99369,-3.1379l-0.57053,-0.57053c-0.42789,-0.28526 -0.85579,-0.71316 -1.28368,-1.14105l-0.71316,-0.71316c-0.42789,-0.42789 -0.85579,-0.71316 -1.14105,-1.14105c-0.28526,-0.28526 -0.42789,-0.57053 -0.71316,-0.85579c-0.42789,-0.42789 -0.71316,-0.71316 -0.99842,-1.14105c-0.28526,-0.28526 -0.42789,-0.57053 -0.71316,-0.85579c-0.28526,-0.28526 -0.57053,-0.71316 -0.85579,-1.14105c-0.14263,-0.42789 -0.42789,-0.71316 -0.57053,-0.99842c-0.14263,-0.28526 -0.28526,-0.42789 -0.42789,-0.71316c0.14263,-0.28526 0.28526,-0.42789 0.42789,-0.71316c0.14263,-0.42789 0.28526,-0.71316 0.57053,-0.99842c0.28526,-0.28526 0.57053,-0.71316 0.85579,-1.14105c0.28526,-0.28526 0.42789,-0.57053 0.71316,-0.85579c0.28526,-0.42789 0.71316,-0.71316 0.99842,-1.14105c0.28526,-0.28526 0.42789,-0.57053 0.71316,-0.85579l1.85421,-1.85421c0.42789,-0.42789 0.85579,-0.71316 1.28368,-1.14105l0.57053,-0.57053c1.28368,-1.14105 2.56738,-2.13948 3.99369,-3.1379c0.28526,-0.14263 0.42789,-0.28526 0.71316,-0.42789c0.42789,-0.28526 0.85579,-0.57053 1.42632,-0.85579l0.85579,-0.42789c0.42789,-0.28526 0.99842,-0.42789 1.42632,-0.71316c0.42789,-0.14263 0.71316,-0.28526 0.99842,-0.42789c0.57053,-0.14263 0.99842,-0.42789 1.42632,-0.57053c0.28526,-0.14263 0.71316,-0.28526 0.99842,-0.42789c0.57053,-0.28526 0.99842,-0.42789 1.42632,-0.57053c0.28526,0 0.71316,-0.14263 0.99842,-0.28526c0.57053,-0.14263 0.99842,-0.28526 1.42632,-0.42789c0.42789,-0.14263 0.71316,-0.14263 1.14105,-0.28526c0.42789,-0.14263 0.99842,-0.14263 1.42632,-0.28526c0.42789,-0.14263 0.71316,-0.28526 1.14105,-0.28526c0.42789,-0.14263 0.99842,-0.14263 1.42632,-0.28526c0.42789,0 0.71316,-0.14263 1.14105,-0.14263c0.42789,0 0.99842,-0.14263 1.42632,-0.14263c0.42789,-0.14263 0.71316,-0.14263 1.14105,-0.14263h0.28526v0.42789c0.14263,0.28526 0.14263,0.71316 0.14263,0.99842c0,0.57053 0.14263,1.14105 0.14263,1.71158c0,0.42789 0.14263,0.71316 0.14263,1.14105c0.14263,0.57053 0.14263,1.14105 0.28526,1.71158c0,0.28526 0,0.71316 0.14263,0.99842l0.42789,1.71158c0.14263,0.42789 0.14263,0.71316 0.28526,0.99842c0.28526,0.71316 0.42789,1.56895 0.71316,2.28211c0,0.14263 0.14263,0.28526 0.14263,0.42789c0.28526,0.85579 0.71316,1.71158 0.99842,2.56738l0.42789,0.85579c0.14263,0.57053 0.42789,1.14105 0.71316,1.71158c0.14263,0.42789 0.28526,0.71316 0.42789,0.99842l0.42789,0.85579l-0.42789,0.85579c-0.14263,0.42789 -0.28526,0.71316 -0.42789,0.99842c-0.14263,0.57053 -0.42789,1.14105 -0.71316,1.71158l-0.42789,0.85579c-0.42789,0.85579 -0.71316,1.71158 -0.99842,2.56738c0,0.14263 -0.14263,0.28526 -0.14263,0.42789c-0.28526,0.71316 -0.57053,1.56895 -0.71316,2.28211c-0.14263,0.42789 -0.14263,0.71316 -0.28526,0.99842l-0.42789,1.71158c0,0.28526 -0.14263,0.71316 -0.14263,0.99842c-0.14263,0.57053 -0.14263,1.14105 -0.28526,1.71158c0,0.42789 -0.14263,0.71316 -0.14263,1.14105c0,0.57053 -0.14263,1.14105 -0.14263,1.71158zM262.30577,169.77062c-0.28526,0.28526 -0.42789,0.57053 -0.71316,0.85579c-0.57053,0.71316 -1.14105,1.42632 -1.56895,2.13948l-0.42789,0.42789c-0.14263,-0.42789 -0.42789,-0.85579 -0.57053,-1.28368c0,-0.14263 -0.14263,-0.28526 -0.14263,-0.42789c-0.28526,-0.85579 -0.57053,-1.56895 -0.85579,-2.28211c0,-0.14263 -0.14263,-0.42789 -0.14263,-0.57053c-0.28526,-0.57053 -0.42789,-1.14105 -0.57053,-1.71158c0,-0.28526 -0.14263,-0.42789 -0.14263,-0.71316c-0.28526,-0.71316 -0.42789,-1.56895 -0.57053,-2.28211c-0.14263,-0.71316 -0.28526,-1.56895 -0.42789,-2.28211c-0.14263,-0.28526 -0.14263,-0.42789 -0.14263,-0.71316c0,-0.57053 -0.14263,-1.28368 -0.14263,-1.85421v-0.85579h0.85579c0.71316,0 1.28368,0 1.85421,0.14263c0.28526,0.14263 0.42789,0.14263 0.71316,0.14263c0.71316,0.14263 1.56895,0.28526 2.28211,0.42789h0.14263c0.71316,0.14263 1.56895,0.42789 2.28211,0.57053c0.28526,0 0.42789,0.14263 0.71316,0.14263c0.57053,0.14263 1.14105,0.42789 1.71158,0.57053c0.14263,0 0.42789,0.14263 0.57053,0.14263c0.85579,0.28526 1.56895,0.57053 2.28211,0.85579c0,0 0.14263,0.14263 0.28526,0.14263c0.42789,0.14263 0.85579,0.42789 1.28368,0.57053c-0.28526,0.14263 -0.42789,0.28526 -0.57053,0.42789l-2.13948,1.71158c-0.28526,0.28526 -0.57053,0.42789 -0.85579,0.71316c-0.85579,0.85579 -1.71158,1.56895 -2.56738,2.42474c-0.85579,0.85579 -1.71158,1.71158 -2.42474,2.56738zM293.3958,158.36007h1.00213v0.85579c0,0.57053 0,1.28368 -0.14263,1.85421c-0.14263,0.28526 -0.14263,0.42789 -0.14263,0.71316c-0.14263,0.71316 -0.28526,1.56895 -0.42789,2.28211c-0.14263,0.71316 -0.42789,1.56895 -0.57053,2.28211c0,0.28526 -0.14263,0.42789 -0.14263,0.71316c-0.14263,0.57053 -0.42789,1.14105 -0.57053,1.71158c0,0.14263 -0.14263,0.42789 -0.14263,0.57053c-0.28526,0.85579 -0.57053,1.56895 -0.85579,2.28211c0,0.14263 -0.14263,0.28526 -0.14263,0.42789c-0.14263,0.42789 -0.42789,0.85579 -0.57053,1.28368l-0.10498,-0.10498c-0.01341,0.03494 -0.02596,0.07003 -0.03765,0.10498c0.01184,-0.03566 0.02382,-0.07132 0.03566,-0.10697l-0.32092,-0.32092l-1.71158,-2.13948c-0.28526,-0.28526 -0.42789,-0.57053 -0.71316,-0.85579c-0.85579,-0.85579 -1.56895,-1.71158 -2.42474,-2.56738c-0.85579,-0.85579 -1.71158,-1.71158 -2.56738,-2.42474c-0.28526,-0.28526 -0.57053,-0.42789 -0.85579,-0.71316l-2.13948,-1.71158c-0.28526,-0.14263 -0.42789,-0.28526 -0.57053,-0.42789c0.42789,-0.14263 0.85579,-0.42789 1.28368,-0.57053c0,0 0.14263,-0.14263 0.28526,-0.14263c0.85579,-0.28526 1.56895,-0.57053 2.28211,-0.85579c0.14263,0 0.42789,-0.14263 0.57053,-0.14263c0.57053,-0.28526 1.14105,-0.42789 1.71158,-0.57053c0.28526,0 0.42789,-0.14263 0.71316,-0.14263c0.71316,-0.28526 1.56895,-0.42789 2.28211,-0.57053h0.14263c0.70745,-0.14149 1.5554,-0.28298 2.26513,-0.42447l0.01697,-0.00343c0.28526,-0.14263 0.42789,-0.14263 0.71316,-0.14263c0.71159,0 1.28112,-0.14206 1.85051,-0.14263zM293.3958,158.36007c-0.56996,0.00057 -1.28126,0.14263 -1.85051,0.14263c0.56953,-0.14234 1.13906,-0.14263 1.85051,-0.14263zM299.96058,158.36007c0.42789,0 0.99842,0.14263 1.42632,0.14263c-0.42789,0 -0.85579,0 -1.42632,-0.14263zM302.52795,158.78797c0.42789,0.14263 0.99842,0.14263 1.42632,0.28526c-0.42789,-0.14263 -0.85579,-0.28526 -1.42632,-0.28526zM298.24899,161.49798c0,-0.57053 0.14263,-1.14105 0.14263,-1.71158c0.07132,-0.21395 0.10697,-0.39224 0.1248,-0.48138c0.00799,-0.03965 0.01227,-0.06162 0.01483,-0.06133c0.003,0.00029 0.003,0.03551 0.003,0.11482v-0.42789h0.28526c0.42789,0.14263 0.71316,0.14263 1.14105,0.14263c0.42789,0 0.99842,0.14263 1.42632,0.14263c0.42789,0 0.71316,0.14263 1.14105,0.14263c0.42789,0.14263 0.99842,0.14263 1.42632,0.28526c0.42789,0.14263 0.71316,0.14263 1.14105,0.28526c0.42789,0 0.99842,0.14263 1.42632,0.28526c0.42789,0.14263 0.71316,0.14263 1.14105,0.28526c0.57053,0.14263 0.99842,0.28526 1.42632,0.42789c0.28526,0 0.71316,0.14263 0.99842,0.28526c0.57053,0.28526 0.99842,0.42789 1.42632,0.57053c0.28526,0.14263 0.71316,0.28526 0.99842,0.42789c0.57053,0.14263 0.99842,0.28526 1.42632,0.57053c0.42789,0.14263 0.71316,0.28526 0.99842,0.42789c0.57053,0.14263 0.99842,0.42789 1.42632,0.71316l0.85579,0.42789c0.42789,0.28526 0.99842,0.57053 1.42632,0.85579c0.28526,0.14263 0.42789,0.28526 0.71316,0.42789c1.28368,0.99842 2.71001,1.99685 3.99369,3.1379l0.57053,0.57053c0.42789,0.28526 0.85579,0.71316 1.28368,1.14105l0.71316,0.71316c0.42789,0.42789 0.85579,0.71316 1.14105,1.14105c0.28526,0.28526 0.42789,0.57053 0.71316,0.85579c0.42789,0.42789 0.71316,0.71316 0.99842,1.14105c0.28526,0.28526 0.42789,0.57053 0.71316,0.85579c0.28526,0.28526 0.57053,0.71316 0.85579,1.14105c0.14263,0.42789 0.42789,0.71316 0.57053,0.99842c0.0726,0.14534 0.14534,0.2536 0.21794,0.36257c0.0224,-0.02895 0.04493,-0.05491 0.06732,-0.07731c-0.01754,0.03509 -0.03509,0.06804 -0.05263,0.09941c0.06504,0.09785 0.13023,0.19826 0.19526,0.32848c-0.14263,0.28526 -0.28526,0.42789 -0.42789,0.71316c-0.14263,0.42789 -0.28526,0.71316 -0.57053,0.99842c-0.28526,0.28526 -0.57053,0.71316 -0.85579,1.14105c-0.28526,0.28526 -0.42789,0.57053 -0.71316,0.85579c-0.28526,0.42789 -0.71316,0.71316 -0.99842,1.14105c-0.28526,0.28526 -0.42789,0.57053 -0.71316,0.85579l-1.14105,1.14105l-0.71316,0.71316c-0.42789,0.28526 -0.85579,0.71316 -1.28368,1.14105l-0.57053,0.57053c-1.28368,1.14105 -2.56738,2.13948 -3.99369,3.1379c-0.28526,0.14263 -0.42789,0.28526 -0.71316,0.42789c-0.42789,0.28526 -0.85579,0.57053 -1.42632,0.85579l-0.85579,0.42789c-0.42789,0.28526 -0.99842,0.42789 -1.42632,0.71316c-0.42789,0.14263 -0.71316,0.28526 -0.99842,0.42789c-0.57053,0.14263 -0.99842,0.42789 -1.42632,0.57053c-0.28526,0.14263 -0.71316,0.28526 -0.99842,0.42789c-0.57053,0.28526 -0.99842,0.42789 -1.42632,0.57053c-0.28526,0 -0.71316,0.14263 -0.99842,0.28526c-0.42789,0.14263 -0.99842,0.28526 -1.42632,0.42789c-0.42789,0.14263 -0.71316,0.14263 -1.14105,0.28526c-0.42789,0.14263 -0.99842,0.14263 -1.42632,0.28526c-0.42789,0.14263 -0.71316,0.28526 -1.14105,0.28526c-0.42789,0.14263 -0.99842,0.14263 -1.42632,0.28526c-0.42789,0 -0.71316,0.14263 -1.14105,0.14263c-0.42789,0 -0.99842,0.14263 -1.42632,0.14263c-0.42789,0.14263 -0.71316,0.14263 -1.14105,0.14263h-0.28526v-0.42789c-0.14263,-0.28526 -0.14263,-0.71316 -0.14263,-0.99842c0,-0.57053 -0.14263,-1.14105 -0.14263,-1.71158c0,-0.42789 -0.14263,-0.71316 -0.14263,-1.14105c-0.14263,-0.57053 -0.14263,-1.14105 -0.28526,-1.71158c0,-0.28526 0,-0.71316 -0.14263,-0.99842l-0.42789,-1.71158c-0.14263,-0.42789 -0.14263,-0.71316 -0.28526,-0.99842c-0.28526,-0.71316 -0.42789,-1.56895 -0.71316,-2.28211c0,-0.14263 -0.14263,-0.28526 -0.14263,-0.42789c-0.28526,-0.85579 -0.71316,-1.71158 -0.99842,-2.56738l-0.42789,-0.85579c-0.14263,-0.57053 -0.42789,-1.14105 -0.71316,-1.71158c-0.14263,-0.42789 -0.28526,-0.71316 -0.42789,-0.99842l-0.42789,-0.85579l0.42789,-0.85579c0.14263,-0.42789 0.28526,-0.71316 0.42789,-0.99842c0.14263,-0.57053 0.42789,-1.14105 0.71316,-1.71158l0.42789,-0.85579c0.42789,-0.85579 0.71316,-1.71158 0.99842,-2.56738c0,-0.14263 0.14263,-0.28526 0.14263,-0.42789c0.28526,-0.71316 0.57053,-1.56895 0.71316,-2.28211c0.14263,-0.42789 0.14263,-0.71316 0.28526,-0.99842l0.42789,-1.71158c0,-0.28526 0.14263,-0.71316 0.14263,-0.99842c0.14263,-0.57053 0.14263,-1.14105 0.28526,-1.71158c0,-0.42789 0.14263,-0.71316 0.14263,-1.14105zM256.02997,161.07008c-0.14263,-0.57053 -0.14263,-1.28368 -0.14263,-1.85421c0,0.57053 0,1.14105 0.14263,1.85421zM306.52164,159.50113c-0.42789,-0.14263 -0.85579,-0.14263 -1.42632,-0.28526c0.42789,0.14263 0.99842,0.14263 1.42632,0.28526zM312.51218,161.49798c0.42789,0.14263 0.85579,0.42789 1.42632,0.57053c-0.57053,-0.14263 -0.99842,-0.28526 -1.42632,-0.57053zM256.45787,164.06535c-0.14263,-0.71316 -0.28526,-1.56895 -0.42789,-2.28211c0.14263,0.71316 0.28526,1.42632 0.42789,2.28211zM256.45787,164.06535c0.14263,0.71316 0.42789,1.56895 0.57053,2.28211c-0.28526,-0.71316 -0.42789,-1.56895 -0.57053,-2.28211zM314.79429,162.63903c0.27642,0.18428 0.61218,0.30894 0.93067,0.45114c-0.34117,-0.18699 -0.636,-0.35287 -0.93067,-0.45114zM316.2206,163.35219c-0.17758,-0.08872 -0.34132,-0.17758 -0.4955,-0.26202c0.17458,0.07788 0.34403,0.16103 0.4955,0.26202zM317.07639,163.78009c0.57053,0.28526 0.99842,0.57053 1.42632,0.85579c-0.42789,-0.14263 -0.99842,-0.57053 -1.42632,-0.85579zM275.00001,164.35061c-0.28526,0.14263 -0.42789,0.28526 -0.71316,0.42789c0.28526,-0.14263 0.42789,-0.14263 0.71316,-0.42789zM274.28685,164.92114c-0.28526,0.14263 -0.57053,0.42789 -0.85579,0.57053c-0.42789,0.14263 -0.85579,0.57053 -1.28368,0.85579c-0.28526,0.14263 -0.57053,0.42789 -0.71316,0.57053c-0.42789,0.28526 -0.85579,0.71316 -1.28368,1.14105c-0.14263,0.14263 -0.42789,0.28526 -0.57053,0.57053c-0.57053,0.57053 -1.28368,1.14105 -1.85421,1.71158c-0.57053,0.57053 -1.14105,1.14105 -1.71158,1.85421c-0.14263,0.14263 -0.42789,0.42789 -0.57053,0.71316c-0.42789,0.42789 -0.71316,0.85579 -0.99842,1.28368c-0.14263,0.28526 -0.42789,0.57053 -0.57053,0.85579l-0.85579,1.28368c-0.14263,0.28526 -0.42789,0.57053 -0.57053,0.85579c-0.13322,0.26629 -0.26629,0.40835 -0.39951,0.6581c-0.05705,-0.09342 -0.11396,-0.17316 -0.17102,-0.23021c0.05106,0.10213 0.10213,0.18585 0.15319,0.26458c-0.00356,0.0067 -0.00699,0.01369 -0.01055,0.02068c0.14263,0.28526 0.28526,0.42789 0.42789,0.71316c0.14263,0.28526 0.42789,0.57053 0.57053,0.85579l0.85579,1.28368c0.14263,0.28526 0.42789,0.57053 0.57053,0.71316c0.28526,0.42789 0.71316,0.85579 1.14105,1.28368c0.14263,0.14263 0.28526,0.42789 0.57053,0.57053c1.14105,1.28368 2.28211,2.42474 3.5658,3.5658c0.14263,0.14263 0.42789,0.28526 0.57053,0.57053c0.42789,0.42789 0.85579,0.71316 1.28368,1.14105c0.28526,0.14263 0.57053,0.42789 0.71316,0.57053l1.28368,0.85579c0.28526,0.14263 0.57053,0.42789 0.85579,0.57053c0.28526,0.14263 0.42789,0.28526 0.71316,0.42789c0.28526,-0.14263 0.42789,-0.28526 0.71316,-0.42789c0.28526,-0.14263 0.57053,-0.42789 0.85579,-0.57053l1.28368,-0.85579c0.28526,-0.14263 0.57053,-0.42789 0.71316,-0.57053c0.42789,-0.28526 0.85579,-0.71316 1.28368,-1.14105c0.14263,-0.14263 0.42789,-0.28526 0.57053,-0.57053c1.28368,-1.14105 2.42474,-2.28211 3.5658,-3.5658c0.14263,-0.14263 0.28526,-0.42789 0.57053,-0.57053c0.42789,-0.42789 0.71316,-0.85579 1.14105,-1.28368c0.14263,-0.28526 0.42789,-0.57053 0.57053,-0.71316l0.85579,-1.28368c0.14263,-0.28526 0.42789,-0.57053 0.57053,-0.85579c0.14263,-0.28526 0.28526,-0.42789 0.42789,-0.71316c-0.05106,-0.10213 -0.10213,-0.18585 -0.15319,-0.26458c0.00356,-0.0067 0.00699,-0.01369 0.01055,-0.02068c-0.00485,0.00485 -0.00955,0.0097 -0.01441,0.01483c-0.09029,-0.13864 -0.18057,-0.26215 -0.27086,-0.44273c-0.14263,-0.28526 -0.42789,-0.57053 -0.57053,-0.85579l-0.85579,-1.28368c-0.14263,-0.28526 -0.42789,-0.57053 -0.57053,-0.85579c-0.28526,-0.42789 -0.71316,-0.85579 -0.99842,-1.28368c-0.14263,-0.28526 -0.42789,-0.42789 -0.57053,-0.71316c-0.05206,-0.05206 -0.10412,-0.10526 -0.15618,-0.1596c-0.50749,-0.63243 -1.01511,-1.15275 -1.52259,-1.66166c-0.01098,-0.01113 -0.02182,-0.02211 -0.0328,-0.03295l-0.07132,-0.07132l-0.05192,-0.05192l-0.0194,-0.0194l-0.00043,-0.00043c-0.0107,-0.0107 -0.02153,-0.02153 -0.03252,-0.03224c-0.50891,-0.50763 -1.02937,-1.01525 -1.66181,-1.52288c-0.0542,-0.05206 -0.1074,-0.10398 -0.15946,-0.15604c0.04736,0.04736 0.09471,0.09471 0.14221,0.14206c-0.14292,-0.14234 -0.42761,-0.28498 -0.5701,-0.56996c-0.42789,-0.42789 -0.85579,-0.71316 -1.28368,-1.14105c-0.28526,-0.14263 -0.57053,-0.42789 -0.71316,-0.57053l-1.28368,-0.85579c-0.28526,-0.14263 -0.57053,-0.42789 -0.85579,-0.57053c-0.28526,-0.14263 -0.42789,-0.28526 -0.71316,-0.42789c-0.0686,0.01712 -0.13094,0.03224 -0.18813,0.04593c-0.03066,-0.01369 -0.0629,-0.02881 -0.09713,-0.04593c0.03181,0.01583 0.06176,0.03181 0.09029,0.04764c-0.41349,0.09941 -0.55384,0.13065 -0.80344,0.38026zM319.21587,165.2064c1.42632,0.99842 2.71001,1.99685 3.99369,3.1379c-1.28368,-1.14105 -2.56738,-2.28211 -3.99369,-3.1379zM323.78009,168.7722c0.42789,0.42789 0.85579,0.71316 1.28368,1.14105c-0.42789,-0.28526 -0.85579,-0.71316 -1.28368,-1.14105zM257.74156,168.7722c-0.14263,-0.57053 -0.42789,-1.14105 -0.57053,-1.71158c0.14263,0.57053 0.28526,1.14105 0.57053,1.71158zM326.91799,171.9101c-0.42789,-0.42789 -0.71316,-0.85579 -1.14105,-1.14105zM259.45313,173.33641c-0.14263,-0.42789 -0.42789,-0.85579 -0.57053,-1.28368c0.28526,0.42789 0.42789,0.85579 0.57053,1.28368zM264.30262,174.04957c0.28526,-0.42789 0.71316,-0.85579 0.99842,-1.28368c-0.28526,0.42789 -0.57053,0.85579 -0.99842,1.28368zM327.63115,172.76589c0.12823,0.19241 0.28541,0.35601 0.44544,0.51662c0.16046,0.19626 0.3389,0.41035 0.55298,0.62444c-0.15704,-0.23548 -0.35715,-0.42776 -0.55298,-0.62444c-0.16032,-0.19598 -0.30295,-0.37412 -0.44544,-0.51662zM218.80307,177.61537c0.14263,0.28526 0.28526,0.42789 0.42789,0.71316c-0.14263,-0.28526 -0.28526,-0.57053 -0.42789,-0.71316zM222.36886,182.46485c-0.28526,-0.42789 -0.71316,-0.71316 -0.99842,-1.14105c0.42789,0.42789 0.71316,0.71316 0.99842,1.14105zM266.86999,233.09914c-0.14263,-0.14263 -0.14263,-0.14263 -0.28526,-0.14263c-0.71316,-0.57053 -1.42632,-1.28368 -1.99685,-1.85421c-0.14263,-0.14263 -0.42789,-0.42789 -0.57053,-0.71316c-0.42789,-0.42789 -0.85579,-0.85579 -1.28368,-1.42632c-0.28526,-0.28526 -0.42789,-0.57053 -0.71316,-0.85579c-0.42789,-0.42789 -0.71316,-0.85579 -1.14105,-1.28368c-0.28526,-0.28526 -0.42789,-0.57053 -0.71316,-0.85579c-0.28526,-0.42789 -0.71316,-0.85579 -0.99842,-1.28368c-0.28526,-0.28526 -0.42789,-0.57053 -0.57053,-0.99842c-0.28526,-0.42789 -0.57053,-0.99842 -0.85579,-1.42632c-0.14263,-0.28526 -0.42789,-0.57053 -0.57053,-0.99842c-0.28526,-0.57053 -0.57053,-0.99842 -0.85579,-1.56895l-0.42789,-0.85579c-0.28526,-0.71316 -0.57053,-1.28368 -0.99842,-1.99685c0,-0.14263 -0.14263,-0.28526 -0.14263,-0.42789c-0.28526,-0.85579 -0.71316,-1.71158 -0.99842,-2.56738c-0.14263,-0.28526 -0.14263,-0.42789 -0.28526,-0.71316c-0.14263,-0.57053 -0.42789,-1.28368 -0.57053,-1.85421c-0.14263,-0.28526 -0.14263,-0.71316 -0.28526,-0.99842l-0.42789,-1.71158c-0.14263,-0.42789 -0.14263,-0.71316 -0.14263,-1.14105c0,-0.71316 -0.14263,-1.28368 -0.14263,-1.85421c0,-0.42789 -0.14263,-0.71316 -0.14263,-1.14105c0,-0.57053 -0.14263,-1.14105 -0.14263,-1.71158c0,-0.42789 0,-0.71316 -0.14263,-1.14105v-0.42789h-0.42789c-0.42789,0 -0.71316,0 -1.14105,-0.14263c-0.57053,0 -1.14105,-0.14263 -1.71158,-0.14263c-0.42789,0 -0.71316,-0.14263 -1.14105,-0.14263c-0.57053,-0.14263 -1.14105,-0.14263 -1.71158,-0.28526c-0.42789,0 -0.71316,-0.14263 -1.14105,-0.28526l-1.71158,-0.42789c-0.28526,-0.14263 -0.71316,-0.14263 -0.99842,-0.28526c-0.57053,-0.14263 -1.28368,-0.42789 -1.85421,-0.57053c-0.28526,-0.14263 -0.57053,-0.14263 -0.71316,-0.28526c-0.85579,-0.28526 -1.71158,-0.57053 -2.56738,-0.99842c-0.14263,0 -0.28526,-0.14263 -0.57053,-0.28526c-0.71316,-0.28526 -1.28368,-0.57053 -1.99685,-0.85579l-0.85579,-0.42789c-0.57053,-0.28526 -0.99842,-0.57053 -1.56895,-0.85579c-0.28526,-0.14263 -0.57053,-0.42789 -0.99842,-0.57053c-0.42789,-0.28526 -0.99842,-0.57053 -1.42632,-0.85579c-0.28526,-0.14263 -0.57053,-0.42789 -0.99842,-0.57053c-0.42789,-0.28526 -0.85579,-0.57053 -1.28368,-0.99842c-0.28526,-0.28526 -0.57053,-0.42789 -0.85579,-0.71316c-0.42789,-0.28526 -0.85579,-0.71316 -1.28368,-1.14105c-0.28526,-0.28526 -0.57053,-0.42789 -0.85579,-0.71316c-0.42789,-0.42789 -0.99842,-0.85579 -1.42632,-1.28368l-0.57053,-0.57053c-0.71316,-0.71316 -1.28368,-1.28368 -1.85421,-1.99685c-0.14263,-0.14263 -0.14263,-0.14263 -0.14263,-0.28526c-0.57053,-0.57053 -0.99842,-1.28368 -1.56895,-1.85421c-0.14263,-0.28526 -0.42789,-0.57053 -0.57053,-0.71316c-0.28526,-0.42789 -0.57053,-0.71316 -0.85579,-1.14105c-2.71001,5.56264 -3.99369,11.41054 -3.99369,17.25845c0,22.53583 18.25687,40.7927 40.7927,40.7927c5.99054,0 11.83844,-1.28368 17.25845,-3.85106c-0.42789,-0.28526 -0.71316,-0.57053 -1.14105,-0.85579c-0.28526,-0.14263 -0.57053,-0.42789 -0.71316,-0.57053c-0.71316,-0.42789 -1.28368,-0.85579 -1.99685,-1.42632zM330.48379,185.74538c0,0.14263 -0.14263,0.14263 -0.14263,0.28526c-0.57053,0.71316 -1.28368,1.42632 -1.85421,1.99685l-0.57053,0.57053c-0.42789,0.42789 -0.85579,0.85579 -1.42632,1.28368c-0.28526,0.28526 -0.57053,0.42789 -0.85579,0.71316c-0.42789,0.42789 -0.85579,0.71316 -1.28368,1.14105c-0.28526,0.28526 -0.57053,0.42789 -0.85579,0.71316c-0.42789,0.28526 -0.85579,0.71316 -1.28368,0.99842c-0.28526,0.28526 -0.57053,0.42789 -0.99842,0.57053c-0.42789,0.28526 -0.99842,0.57053 -1.42632,0.85579c-0.28526,0.14263 -0.57053,0.42789 -0.99842,0.57053c-0.57053,0.28526 -0.99842,0.57053 -1.56895,0.85579l-0.85579,0.42789c-0.71316,0.28526 -1.28368,0.57053 -1.99685,0.85579c-0.14263,0.14263 -0.28526,0.14263 -0.57053,0.28526c-0.85579,0.28526 -1.71158,0.71316 -2.56738,0.99842c-0.28526,0.14263 -0.57053,0.14263 -0.71316,0.28526c-0.57053,0.14263 -1.28368,0.42789 -1.85421,0.57053c-0.28526,0.14263 -0.71316,0.14263 -0.99842,0.28526l-1.71158,0.42789c-0.38026,-0.09514 -0.63385,-0.06333 -0.88745,-0.03166c-0.1268,0.01583 -0.2536,0.03166 -0.39623,0.03166c-0.57053,0.14263 -1.14105,0.14263 -1.71158,0.28526c-0.42789,0 -0.71316,0.14263 -1.14105,0.14263c-0.57053,0 -1.14105,0.14263 -1.71158,0.14263c-0.42789,0 -0.71316,0 -1.14105,0.14263h-0.42789v0.42789c0,0.42789 0,0.71316 -0.14263,1.14105c0,0.57053 -0.14263,1.14105 -0.14263,1.71158c0,0.42789 -0.14263,0.71316 -0.14263,1.14105c-0.14263,0.57053 -0.14263,1.14105 -0.28526,1.71158c0,0.42789 -0.14263,0.71316 -0.14263,1.14105l-0.42789,1.71158c-0.14263,0.28526 -0.14263,0.71316 -0.28526,0.99842c-0.14263,0.71316 -0.42789,1.28368 -0.57053,1.85421c-0.14263,0.28526 -0.14263,0.42789 -0.28526,0.71316c-0.28526,0.85579 -0.57053,1.71158 -0.99842,2.56738c0,0.14263 -0.14263,0.28526 -0.14263,0.42789c-0.28526,0.71316 -0.57053,1.42632 -0.99842,1.99685l-0.42789,0.85579c-0.28526,0.57053 -0.57053,0.99842 -0.85579,1.56895c-0.14263,0.28526 -0.42789,0.57053 -0.57053,0.99842c-0.28526,0.42789 -0.57053,0.99842 -0.85579,1.42632c-0.14263,0.28526 -0.42789,0.57053 -0.57053,0.99842c-0.28526,0.42789 -0.57053,0.85579 -0.99842,1.28368c-0.28526,0.28526 -0.42789,0.57053 -0.71316,0.85579c-0.28526,0.42789 -0.71316,0.85579 -1.14105,1.28368c-0.28526,0.28526 -0.42789,0.57053 -0.71316,0.85579c-0.42789,0.42789 -0.85579,0.85579 -1.28368,1.42632c-0.14263,0.28526 -0.42789,0.42789 -0.57053,0.71316c-0.71316,0.71316 -1.28368,1.28368 -1.99685,1.85421c-0.14263,0.14263 -0.14263,0.14263 -0.28526,0.14263c-0.57053,0.57053 -1.28368,0.99842 -1.85421,1.56895c-0.28526,0.14263 -0.57053,0.42789 -0.71316,0.57053c-0.42789,0.28526 -0.71316,0.57053 -1.14105,0.85579c5.42001,2.56738 11.26791,3.85106 17.25845,3.85106c22.53583,0 40.7927,-18.25687 40.7927,-40.7927c0,-5.99054 -1.28368,-11.83844 -3.85106,-17.25845c-0.28526,0.42789 -0.57053,0.71316 -0.85579,1.14105c-0.14263,0.28526 -0.42789,0.57053 -0.57053,0.71316c-0.57053,0.85579 -0.99842,1.42632 -1.56895,2.13948zM268.01105,191.02276c0.71316,0.57053 1.42632,1.14105 1.99685,1.71158c0.28526,0.14263 0.42789,0.28526 0.57053,0.42789c-0.42789,0.14263 -0.85579,0.42789 -1.28368,0.57053c-0.14263,0 -0.28526,0.14263 -0.42789,0.14263c-0.85579,0.28526 -1.56895,0.57053 -2.28211,0.85579c-0.14263,0 -0.42789,0.14263 -0.57053,0.14263c-0.57053,0.28526 -1.14105,0.42789 -1.71158,0.57053c-0.28526,0 -0.42789,0.14263 -0.71316,0.14263c-0.15704,0.06276 -0.32092,0.11867 -0.48866,0.16916c0.24675,-0.06461 0.50321,-0.12409 0.77392,-0.16916c-0.71316,0.14263 -1.56895,0.42789 -2.28211,0.57053c0.36985,-0.07403 0.73969,-0.18627 1.12936,-0.29724c-0.48124,0.12138 -0.97503,0.20938 -1.41462,0.29724c-0.71316,0.14263 -1.56895,0.28526 -2.28211,0.42789c-0.28526,0.14263 -0.42789,0.14263 -0.71316,0.14263c-0.57053,0 -1.28368,0.14263 -1.85421,0.14263h-0.85579v-0.85579c0,-0.57053 0,-1.28368 0.14263,-1.85421c0.14263,-0.28526 0.14263,-0.42789 0.14263,-0.71316c0.14263,-0.71316 0.28526,-1.56895 0.42789,-2.28211c0.14263,-0.71316 0.42789,-1.56895 0.57053,-2.28211c0,-0.28526 0.14263,-0.42789 0.14263,-0.71316c0.14263,-0.57053 0.42789,-1.14105 0.57053,-1.71158c0,-0.14263 0.14263,-0.42789 0.14263,-0.57053c0.28526,-0.85579 0.57053,-1.56895 0.85579,-2.28211c0,-0.14263 0.14263,-0.28526 0.14263,-0.42789c0.14263,-0.42789 0.42789,-0.85579 0.57053,-1.28368l0.10498,0.10498c0.01341,-0.03494 0.02596,-0.07003 0.03765,-0.10498c-0.01184,0.03566 -0.02382,0.07132 -0.03566,0.10697l0.32092,0.32092l1.71158,2.13948c0.28526,0.28526 0.42789,0.57053 0.71316,0.85579c0.85579,0.85579 1.56895,1.71158 2.42474,2.56738c0.71316,0.85579 1.71158,1.71158 2.56738,2.42474c0.28526,0.28526 0.57053,0.42789 0.85579,0.71316zM290.54688,181.89432c0.14263,0.42789 0.42789,0.85579 0.57053,1.28368c-0.28526,-0.42789 -0.42789,-0.85579 -0.57053,-1.28368zM287.69424,185.46012c0.28526,-0.28526 0.42789,-0.57053 0.71316,-0.85579c0.57053,-0.71316 1.14105,-1.42632 1.56895,-2.13948l0.42789,-0.42789c0.14263,0.42789 0.42789,0.85579 0.57053,1.28368c0,0.14263 0.14263,0.28526 0.14263,0.42789c0.28526,0.85579 0.57053,1.56895 0.85579,2.28211c0,0.14263 0.14263,0.42789 0.14263,0.57053c0.28526,0.57053 0.42789,1.14105 0.57053,1.71158c0,0.28526 0.14263,0.42789 0.14263,0.71316c0.28526,0.71316 0.42789,1.56895 0.57053,2.28211c0.14263,0.71316 0.28526,1.56895 0.42789,2.28211c0.14263,0.28526 0.14263,0.42789 0.14263,0.71316c0,0.57053 0.14263,1.28368 0.14263,1.85421v0.85579h-0.85579c-0.57053,0 -1.28368,0 -1.85421,-0.14263c-0.28526,-0.14263 -0.42789,-0.14263 -0.71316,-0.14263c-0.71316,-0.14263 -1.56895,-0.28526 -2.28211,-0.42789c-0.71316,-0.14263 -1.56895,-0.42789 -2.28211,-0.57053c-0.28526,0 -0.42789,-0.14263 -0.71316,-0.14263c-0.57053,-0.14263 -1.14105,-0.42789 -1.71158,-0.57053c-0.14263,0 -0.42789,-0.14263 -0.57053,-0.14263c-0.85579,-0.28526 -1.56895,-0.57053 -2.28211,-0.85579c-0.14263,0 -0.28526,-0.14263 -0.42789,-0.14263c-0.42789,-0.14263 -0.85579,-0.42789 -1.28368,-0.57053c0.07973,-0.03979 0.1482,-0.07973 0.20867,-0.11952c-0.02197,-0.00799 -0.04407,-0.01583 -0.06604,-0.02311c0.0224,0.00742 0.04479,0.01498 0.06718,0.0224c0.15561,-0.10255 0.25816,-0.20511 0.36072,-0.30766l2.13948,-1.71158c0.28526,-0.28526 0.57053,-0.42789 0.85579,-0.71316c0.85579,-0.85579 1.71158,-1.56895 2.56738,-2.42474c0.85579,-0.71316 1.71158,-1.71158 2.42474,-2.56738zM265.87157,183.178c1.14105,1.28368 2.28211,2.42474 3.5658,3.5658c-1.28368,-1.14105 -2.42474,-2.42474 -3.5658,-3.5658zM226.21992,186.3159c-0.42789,-0.42789 -0.85579,-0.85579 -1.28368,-1.14105c0.42789,0.42789 0.85579,0.71316 1.28368,1.14105zM292.25846,186.3159c0.09941,0.39766 0.26801,0.79518 0.4095,1.19283c0.05805,0.19141 0.10954,0.36442 0.16103,0.51875c-0.04322,-0.17287 -0.09956,-0.34588 -0.16103,-0.51875c-0.10312,-0.33932 -0.22707,-0.73698 -0.4095,-1.19283zM293.54215,191.02276c-0.14263,-0.71316 -0.28526,-1.42632 -0.57053,-2.28211c0.14263,0.71316 0.42789,1.56895 0.57053,2.28211zM232.92362,191.30802c-0.57053,-0.28526 -0.99842,-0.57053 -1.42632,-0.85579c0.42789,0.28526 0.99842,0.57053 1.42632,0.85579zM235.20573,192.59171c-0.42789,-0.28526 -0.99842,-0.42789 -1.42632,-0.71316c0.57053,0.14263 0.99842,0.42789 1.42632,0.71316zM270.72105,193.16223c-0.42789,0.14263 -0.85579,0.42789 -1.28368,0.57053c0.42789,-0.28526 0.85579,-0.42789 1.28368,-0.57053zM239.91258,194.58855c-0.42789,-0.14263 -0.85579,-0.28526 -1.42632,-0.57053c0.57053,0.14263 0.99842,0.42789 1.42632,0.57053zM242.33732,195.30171c-0.42789,-0.14263 -0.99842,-0.28526 -1.42632,-0.42789c0.57053,0.14263 0.99842,0.28526 1.42632,0.42789zM243.47837,195.72961c0.35387,0 0.70788,0.09756 1.14248,0.2121c-0.37584,-0.07574 -0.80387,-0.09927 -1.14248,-0.2121zM244.62085,195.9417c0.09086,0.02382 0.18528,0.04849 0.28384,0.07317c-0.08929,-0.02981 -0.18471,-0.05335 -0.28384,-0.07317zM289.97635,200.72172c-0.57053,-0.14263 -1.14105,-0.14263 -1.71158,-0.28526c-0.28526,0 -0.71316,-0.14263 -0.99842,-0.14263l-1.71158,-0.42789c-0.28526,-0.14263 -0.57053,-0.14263 -0.85579,-0.28526c-0.71316,-0.14263 -1.56895,-0.42789 -2.28211,-0.71316c-0.14263,0 -0.28526,0 -0.28526,-0.14263c-0.85579,-0.28526 -1.71158,-0.57053 -2.56738,-0.99842l-0.85579,-0.42789c-0.57053,-0.28526 -1.14105,-0.42789 -1.71158,-0.71316c-0.28526,-0.14263 -0.71316,-0.28526 -0.99842,-0.42789l-0.85579,-0.42789l-0.85579,0.42789c-0.28526,0.14263 -0.71316,0.28526 -0.99842,0.42789c-0.57053,0.28526 -1.14105,0.57053 -1.71158,0.71316l-0.85579,0.42789c-0.85579,0.28526 -1.71158,0.71316 -2.56738,0.99842c-0.14263,0 -0.28526,0 -0.28526,0.14263c-0.71316,0.28526 -1.56895,0.42789 -2.28211,0.71316c-0.28526,0.14263 -0.57053,0.14263 -0.85579,0.28526l-1.71158,0.42789c-0.28526,0.14263 -0.71316,0.14263 -0.99842,0.14263c-0.57053,0.14263 -1.14105,0.14263 -1.71158,0.28526c-0.42789,0 -0.71316,0.14263 -1.14105,0.14263c-0.57053,0 -1.14105,0.14263 -1.71158,0.14263c-0.28526,0 -0.71316,0 -0.99842,0.14263h-0.42789v0.28526c0,0.42789 0,0.71316 0.14263,1.14105c0,0.42789 0.14263,0.99842 0.14263,1.42632c0,0.42789 0.14263,0.71316 0.14263,1.14105c0.14263,0.42789 0.14263,0.99842 0.28526,1.42632c0,0.42789 0.14263,0.71316 0.28526,1.14105c0.14263,0.42789 0.14263,0.99842 0.28526,1.42632c0.14263,0.42789 0.14263,0.71316 0.28526,1.14105c0.14263,0.42789 0.28526,0.85579 0.42789,1.42632c0.14263,0.28526 0.28526,0.71316 0.42789,0.99842c0.14263,0.42789 0.28526,0.85579 0.57053,1.42632c0.14263,0.28526 0.28526,0.71316 0.42789,0.99842c0.14263,0.42789 0.42789,0.85579 0.57053,1.28368c0.14263,0.28526 0.28526,0.71316 0.42789,0.99842c0.28526,0.42789 0.42789,0.85579 0.71316,1.42632l0.42789,0.85579c0.28526,0.42789 0.57053,0.99842 0.85579,1.42632c0.14263,0.28526 0.28526,0.42789 0.42789,0.71316c0.42789,0.71316 0.99842,1.42632 1.42632,1.99685c0.57053,0.71316 0.99842,1.28368 1.56895,1.99685l0.57053,0.57053c0.42789,0.42789 0.71316,0.85579 1.14105,1.28368l0.71316,0.71316c0.42789,0.42789 0.71316,0.71316 1.14105,0.99842c0.28526,0.28526 0.57053,0.42789 0.85579,0.71316c0.42789,0.28526 0.71316,0.71316 1.14105,0.99842c0.28526,0.28526 0.57053,0.42789 0.85579,0.71316c0.42789,0.28526 0.85579,0.57053 1.14105,0.85579c0.28526,0.28526 0.57053,0.42789 0.99842,0.57053c0.26044,0.13023 0.40208,0.26044 0.64184,0.39067c-0.02282,0.01241 -0.0465,0.02482 -0.07132,0.03723c0.02582,-0.01298 0.05049,-0.02467 0.07431,-0.03551c0.02182,0.01184 0.04464,0.02368 0.06832,0.03551c0.28526,-0.14263 0.42789,-0.28526 0.71316,-0.42789c0.28526,-0.14263 0.71316,-0.42789 0.99842,-0.57053c0.42789,-0.28526 0.85579,-0.57053 1.14105,-0.85579c0.28526,-0.28526 0.57053,-0.42789 0.85579,-0.71316c0.00628,-0.00428 0.01255,-0.00842 0.01883,-0.01269c-0.05363,0.04978 -0.10754,0.10141 -0.16146,0.15532c0.13764,-0.09171 0.26059,-0.19826 0.37826,-0.31008c0.25616,-0.19441 0.4734,-0.40122 0.73712,-0.66295c0.00842,-0.00827 0.01683,-0.01654 0.0251,-0.02482l0.00057,-0.00057l0.14263,-0.14263c0.28526,-0.28526 0.57053,-0.42789 0.85579,-0.71316c0.42789,-0.28526 0.71316,-0.71316 1.14105,-0.99842l0.71316,-0.71316c0.42789,-0.42789 0.85579,-0.85579 1.14105,-1.28368l0.57053,-0.57053c0.57053,-0.71316 1.14105,-1.28368 1.56895,-1.99685c0.13678,-0.17102 0.26544,-0.34203 0.38782,-0.51119c0.34916,-0.45984 0.7307,-0.97275 1.0385,-1.48565c0.14263,-0.28526 0.28526,-0.42789 0.42789,-0.71316c0.28526,-0.42789 0.57053,-0.99842 0.85579,-1.42632l0.42789,-0.85579c0.28526,-0.42789 0.57053,-0.85579 0.71316,-1.42632c0.14263,-0.28526 0.28526,-0.57053 0.42789,-0.99842c0.14263,-0.42789 0.42789,-0.85579 0.57053,-1.28368c0.14263,-0.28526 0.28526,-0.71316 0.42789,-0.99842c0.14263,-0.42789 0.28526,-0.85579 0.57053,-1.42632c0.14263,-0.28526 0.28526,-0.71316 0.42789,-0.99842c0.14263,-0.42789 0.28526,-0.85579 0.42789,-1.42632c0.14263,-0.42789 0.14263,-0.71316 0.28526,-1.14105c0.14263,-0.42789 0.28526,-0.99842 0.28526,-1.42632c0.14263,-0.42789 0.14263,-0.71316 0.28526,-1.14105c0.14263,-0.42789 0.28526,-0.85579 0.28526,-1.42632c0,-0.42789 0.14263,-0.71316 0.14263,-1.14105c0.14263,-0.42789 0.14263,-0.85579 0.14263,-1.42632c0,-0.42789 0,-0.71316 0.14263,-1.14105v-0.28526h-0.42789c-0.28526,0 -0.71316,0 -0.99842,-0.14263c-0.57053,0 -1.14105,-0.14263 -1.71158,-0.14263c-0.42789,0 -0.71316,-0.14263 -1.14105,-0.14263zM247.47206,196.44277c-0.42789,-0.14263 -0.99842,-0.14263 -1.42632,-0.28526c0.42789,0.14263 0.85579,0.28526 1.42632,0.28526zM261.44998,196.1575c-0.71316,0.14263 -1.56895,0.28526 -2.28211,0.42789c0.71316,-0.14263 1.42632,-0.28526 2.28211,-0.42789zM250.03944,196.72803c-0.42789,0 -0.99842,-0.14263 -1.42632,-0.14263c0.42789,0.14263 0.85579,0.14263 1.42632,0.14263zM256.02997,204.00225c0,-0.42789 -0.14263,-0.99842 -0.14263,-1.42632c0,0.57053 0,0.99842 0.14263,1.42632zM256.02997,205.14331c0.02981,0.08929 0.05335,0.18471 0.07317,0.28384c-0.02382,-0.09086 -0.04849,-0.18528 -0.07317,-0.28384zM256.10315,205.42714c0.11453,0.4346 0.2121,0.78847 0.2121,1.14248c-0.11282,-0.33861 -0.1365,-0.7665 -0.2121,-1.14248zM256.88577,209.137c-0.14263,-0.42789 -0.28526,-0.99842 -0.28526,-1.42632c0.14263,0.42789 0.28526,0.99842 0.28526,1.42632zM293.39951,207.71068c-0.14263,0.42789 -0.14263,0.99842 -0.28526,1.42632c0,-0.42789 0.14263,-0.99842 0.28526,-1.42632zM258.59735,213.98648c-0.14263,-0.42789 -0.28526,-0.85579 -0.57053,-1.42632c0.14263,0.57053 0.28526,0.99842 0.57053,1.42632zM291.1174,214.9849c-0.08344,0.25032 -0.21566,0.50064 -0.33961,0.75096c0.08929,-0.21437 0.19655,-0.4647 0.33961,-0.75096zM290.77779,215.73586c-0.08872,0.21295 -0.15989,0.39053 -0.23092,0.53273c0.05919,-0.17758 0.14292,-0.35515 0.23092,-0.53273zM259.59577,216.41122c-0.14263,-0.42789 -0.42789,-0.85579 -0.57053,-1.28368c0.14263,0.42789 0.28526,0.85579 0.57053,1.28368zM260.73683,218.69333c-0.28526,-0.42789 -0.57053,-0.85579 -0.71316,-1.42632c0.28526,0.57053 0.42789,0.99842 0.71316,1.42632zM262.16314,221.11807c-0.28526,-0.42789 -0.57053,-0.99842 -0.85579,-1.42632c0.28526,0.42789 0.57053,0.85579 0.85579,1.42632zM264.01736,223.82808c-0.57053,-0.71316 -0.99842,-1.42632 -1.42632,-1.99685c0.42789,0.57053 0.99842,1.28368 1.42632,1.99685zM269.29473,229.53335c-0.42789,-0.28526 -0.71316,-0.71316 -1.14105,-0.99842c0.42789,0.28526 0.71316,0.57053 1.14105,0.99842zM270.15052,230.10388c0.28526,0.42789 0.71316,0.71316 1.14105,0.99842c-0.42789,-0.28526 -0.71316,-0.57053 -1.14105,-0.99842zM275.00001,233.8123c-0.28526,-0.14263 -0.42789,-0.28526 -0.71316,-0.42789c0.28526,0.14263 0.42789,0.14263 0.71316,0.42789z" data-paper-data="{&quot;isPathIcon&quot;:true}"></path></g></g></g></svg>